<svg
xmlns="http://www.w3.org/2000/svg"
viewBox="0 0 24 24"
fill="none"
className="h-5 w-5"
aria-hidden="true"
>
<path
d="M3 3l18 18M10.58 10.58A3 3 0 0 0 13.42 13.42M9.88 5.5A9.99 9.99 0 0 1 21 12a9.99 9.99 0 0 1-2.3 3.69M6.1 6.1A9.98 9.98 0 0 0 3 12c1.78 2.67 4.74 4.5 8 4.5 1.15 0 2.24-.2 3.24-.56"
stroke="currentColor"
strokeWidth="2"
strokeLinecap="round"
strokeLinejoin="round"
/>
</svg>

<svg
xmlns="http://www.w3.org/2000/svg"
viewBox="0 0 24 24"
fill="none"
className="h-5 w-5"
aria-hidden="true"
>
<path
d="M1 12s4-7 11-7 11 7 11 7-4 7-11 7-11-7-11-7Z"
stroke="currentColor"
strokeWidth="2"
strokeLinecap="round"
strokeLinejoin="round"
/>
<circle
cx="12"
cy="12"
r="3"
stroke="currentColor"
strokeWidth="2"
strokeLinecap="round"
strokeLinejoin="round"
/>
</svg>